<?xml version="1.0" encoding="utf-8"?>
<!-- Generator: Adobe Illustrator 25.1.0, SVG Export Plug-In . SVG Version: 6.00 Build 0)  -->
<svg version="1.1" id="Calque_1" xmlns="http://www.w3.org/2000/svg" xmlns:xlink="http://www.w3.org/1999/xlink" x="0px" y="0px"
	 viewBox="0 0 205 22" style="enable-background:new 0 0 205 22;" xml:space="preserve">
<style type="text/css">
	.st0{fill:#222222;}
	.st1{fill:#F09D51;}
</style>
<path class="st0" d="M20.4,11.1c0,1.4-0.2,2.6-0.7,3.8c-0.5,1.2-1.1,2.2-2,3.1c-0.9,0.9-1.9,1.6-3.1,2s-2.6,0.7-4,0.7
	c-1.5,0-2.8-0.2-4-0.7s-2.3-1.2-3.1-2c-0.9-0.9-1.5-1.9-2-3.1c-0.5-1.2-0.7-2.5-0.7-3.8c0-1.4,0.2-2.6,0.7-3.8
	c0.5-1.2,1.1-2.2,2-3.1c0.9-0.9,1.9-1.5,3.1-2c1.2-0.5,2.6-0.7,4-0.7c1.5,0,2.8,0.2,4,0.7s2.2,1.2,3.1,2c0.9,0.9,1.5,1.9,2,3.1
	C20.2,8.4,20.4,9.7,20.4,11.1z M15.9,11.1c0-0.9-0.1-1.8-0.4-2.5s-0.6-1.4-1-1.9s-1-0.9-1.7-1.2C12.2,5.1,11.4,5,10.6,5
	C9.7,5,9,5.1,8.3,5.4C7.7,5.7,7.1,6.1,6.6,6.6s-0.8,1.2-1,1.9s-0.4,1.6-0.4,2.5c0,0.9,0.1,1.8,0.4,2.5s0.6,1.4,1,1.9
	c0.5,0.5,1,0.9,1.7,1.2c0.7,0.3,1.4,0.4,2.3,0.4c0.8,0,1.6-0.1,2.2-0.4c0.7-0.3,1.2-0.7,1.7-1.2c0.5-0.5,0.8-1.2,1-1.9
	S15.9,12,15.9,11.1z"/>
<path class="st0" d="M33.5,9.1c0.4-0.7,0.9-1.3,1.4-1.7s1.2-0.6,1.9-0.6c0.6,0,1.1,0.1,1.5,0.4l-0.3,3c0,0.2-0.1,0.3-0.2,0.4
	s-0.2,0.1-0.4,0.1c-0.1,0-0.2,0-0.3,0c-0.1,0-0.2,0-0.4,0c-0.1,0-0.2,0-0.4,0c-0.1,0-0.2,0-0.3,0c-0.6,0-1.1,0.2-1.4,0.5
	c-0.4,0.3-0.6,0.7-0.9,1.3v8.2h-4V7.1h2.4c0.2,0,0.4,0,0.5,0.1c0.1,0,0.2,0.1,0.3,0.2c0.1,0.1,0.2,0.2,0.2,0.3
	c0,0.1,0.1,0.3,0.1,0.4L33.5,9.1z"/>
<path class="st0" d="M51.6,3.4c0,0.3-0.1,0.6-0.2,0.9S51.1,4.8,50.9,5c-0.2,0.2-0.5,0.4-0.8,0.5c-0.3,0.1-0.6,0.2-1,0.2
	c-0.3,0-0.6-0.1-0.9-0.2c-0.3-0.1-0.5-0.3-0.8-0.5s-0.4-0.5-0.5-0.7c-0.1-0.3-0.2-0.6-0.2-0.9c0-0.3,0.1-0.6,0.2-0.9
	c0.1-0.3,0.3-0.5,0.5-0.8c0.2-0.2,0.5-0.4,0.8-0.5C48.5,1.1,48.8,1,49.2,1c0.3,0,0.7,0.1,1,0.2c0.3,0.1,0.6,0.3,0.8,0.5
	c0.2,0.2,0.4,0.5,0.5,0.8C51.6,2.7,51.6,3,51.6,3.4z M51.2,7.1v13.5h-4V7.1H51.2z"/>
<path class="st1" d="M83,1.6v18.9h-3.9V9.6c0-0.3,0-0.5,0-0.8s0-0.6,0.1-0.9l-5,9.7c-0.2,0.3-0.4,0.5-0.6,0.7
	c-0.3,0.2-0.6,0.2-0.9,0.2h-0.6c-0.3,0-0.6-0.1-0.9-0.2c-0.3-0.2-0.5-0.4-0.6-0.7l-5-9.8c0,0.3,0,0.6,0.1,0.9c0,0.3,0,0.6,0,0.8
	v10.9h-3.9V1.6h3.4c0.2,0,0.4,0,0.5,0c0.1,0,0.3,0,0.4,0.1c0.1,0,0.2,0.1,0.3,0.2s0.2,0.2,0.3,0.4l4.9,9.6c0.2,0.3,0.3,0.7,0.5,1
	c0.2,0.4,0.3,0.7,0.5,1.1c0.1-0.4,0.3-0.8,0.5-1.1s0.3-0.7,0.5-1l4.9-9.6c0.1-0.2,0.2-0.3,0.3-0.4s0.2-0.2,0.3-0.2
	c0.1,0,0.2-0.1,0.4-0.1c0.1,0,0.3,0,0.5,0H83z"/>
<path class="st1" d="M96.5,14.5c0.1,1.1,0.5,1.9,1,2.5c0.6,0.5,1.3,0.8,2.1,0.8c0.5,0,0.9-0.1,1.2-0.2c0.3-0.1,0.6-0.2,0.9-0.4
	c0.3-0.1,0.5-0.3,0.7-0.4c0.2-0.1,0.5-0.2,0.7-0.2c0.3,0,0.6,0.1,0.7,0.4l1.2,1.4c-0.4,0.5-0.9,0.9-1.3,1.2c-0.5,0.3-1,0.5-1.5,0.7
	c-0.5,0.2-1,0.3-1.5,0.4c-0.5,0.1-1,0.1-1.4,0.1c-0.9,0-1.8-0.2-2.7-0.5c-0.8-0.3-1.6-0.8-2.2-1.4c-0.6-0.6-1.1-1.4-1.5-2.3
	c-0.4-0.9-0.5-2-0.5-3.1c0-0.9,0.2-1.8,0.5-2.6c0.3-0.8,0.8-1.5,1.3-2.1s1.3-1.1,2.1-1.4c0.8-0.4,1.7-0.5,2.8-0.5
	c0.9,0,1.7,0.1,2.5,0.4c0.7,0.3,1.4,0.7,1.9,1.2c0.5,0.5,0.9,1.2,1.2,1.9c0.3,0.8,0.4,1.6,0.4,2.6c0,0.3,0,0.6,0,0.7
	c0,0.2-0.1,0.3-0.1,0.5c-0.1,0.1-0.2,0.2-0.3,0.2s-0.3,0.1-0.4,0.1H96.5z M101.6,12.2c0-0.3,0-0.6-0.1-0.9c-0.1-0.3-0.2-0.6-0.4-0.8
	s-0.4-0.4-0.7-0.6c-0.3-0.1-0.7-0.2-1.1-0.2c-0.8,0-1.4,0.2-1.8,0.7s-0.7,1.1-0.9,1.9H101.6z"/>
<path class="st1" d="M126.7,7.1v13.5h-2.5c-0.5,0-0.8-0.2-1-0.7l-0.2-0.8c-0.3,0.3-0.5,0.5-0.8,0.7c-0.3,0.2-0.6,0.4-0.9,0.5
	c-0.3,0.1-0.7,0.3-1,0.3c-0.4,0.1-0.8,0.1-1.2,0.1c-0.7,0-1.4-0.1-2-0.4c-0.6-0.3-1-0.6-1.4-1.1c-0.4-0.5-0.7-1-0.9-1.6
	s-0.3-1.3-0.3-2.1V7.1h4v8.6c0,0.7,0.2,1.2,0.5,1.5c0.3,0.4,0.8,0.5,1.3,0.5c0.4,0,0.9-0.1,1.2-0.3c0.4-0.2,0.8-0.4,1.1-0.8V7.1
	H126.7z"/>
<path class="st1" d="M140.9,8.5c0.5-0.5,1.1-0.9,1.7-1.2c0.6-0.3,1.3-0.4,2.1-0.4s1.5,0.2,2.1,0.5s1.2,0.8,1.6,1.3
	c0.4,0.6,0.8,1.3,1,2.1c0.2,0.8,0.4,1.7,0.4,2.7c0,1.1-0.1,2.1-0.4,3c-0.3,0.9-0.7,1.7-1.2,2.3c-0.5,0.6-1.1,1.1-1.8,1.5
	c-0.7,0.4-1.5,0.5-2.3,0.5c-0.4,0-0.8,0-1.1-0.1c-0.3-0.1-0.6-0.2-0.9-0.3c-0.3-0.1-0.5-0.3-0.7-0.5c-0.2-0.2-0.4-0.4-0.6-0.7
	l-0.1,0.7c-0.1,0.3-0.2,0.5-0.3,0.6c-0.2,0.1-0.4,0.2-0.6,0.2h-2.7V1.1h4V8.5z M140.9,16.9c0.3,0.3,0.6,0.6,1,0.7s0.7,0.2,1.1,0.2
	c0.4,0,0.7-0.1,1.1-0.2c0.3-0.1,0.6-0.4,0.8-0.7c0.2-0.3,0.4-0.8,0.5-1.3c0.1-0.5,0.2-1.2,0.2-2c0-0.7,0-1.2-0.1-1.7
	c-0.1-0.5-0.2-0.9-0.4-1.2c-0.2-0.3-0.4-0.5-0.7-0.6c-0.3-0.1-0.6-0.2-1-0.2c-0.5,0-0.9,0.1-1.3,0.3c-0.4,0.2-0.7,0.5-1.1,0.9V16.9z
	"/>
<path class="st1" d="M163.3,1.1v19.5h-4V1.1H163.3z"/>
<path class="st1" d="M176.7,14.5c0.1,1.1,0.5,1.9,1,2.5c0.6,0.5,1.3,0.8,2.1,0.8c0.5,0,0.9-0.1,1.2-0.2c0.3-0.1,0.6-0.2,0.9-0.4
	c0.3-0.1,0.5-0.3,0.7-0.4c0.2-0.1,0.5-0.2,0.7-0.2c0.3,0,0.6,0.1,0.7,0.4l1.2,1.4c-0.4,0.5-0.9,0.9-1.3,1.2c-0.5,0.3-1,0.5-1.5,0.7
	c-0.5,0.2-1,0.3-1.5,0.4c-0.5,0.1-1,0.1-1.4,0.1c-0.9,0-1.8-0.2-2.7-0.5c-0.8-0.3-1.6-0.8-2.2-1.4c-0.6-0.6-1.1-1.4-1.5-2.3
	c-0.4-0.9-0.5-2-0.5-3.1c0-0.9,0.2-1.8,0.5-2.6c0.3-0.8,0.8-1.5,1.3-2.1s1.3-1.1,2.1-1.4c0.8-0.4,1.7-0.5,2.8-0.5
	c0.9,0,1.7,0.1,2.5,0.4c0.7,0.3,1.4,0.7,1.9,1.2c0.5,0.5,0.9,1.2,1.2,1.9c0.3,0.8,0.4,1.6,0.4,2.6c0,0.3,0,0.6,0,0.7
	c0,0.2-0.1,0.3-0.1,0.5c-0.1,0.1-0.2,0.2-0.3,0.2s-0.3,0.1-0.4,0.1H176.7z M181.8,12.2c0-0.3,0-0.6-0.1-0.9
	c-0.1-0.3-0.2-0.6-0.4-0.8s-0.4-0.4-0.7-0.6c-0.3-0.1-0.7-0.2-1.1-0.2c-0.8,0-1.4,0.2-1.8,0.7s-0.7,1.1-0.9,1.9H181.8z"/>
<path class="st1" d="M203.4,10c-0.1,0.2-0.2,0.3-0.3,0.4c-0.1,0.1-0.3,0.1-0.4,0.1c-0.2,0-0.4,0-0.6-0.1c-0.2-0.1-0.4-0.2-0.6-0.3
	c-0.2-0.1-0.5-0.2-0.7-0.3s-0.6-0.1-0.9-0.1c-0.5,0-0.9,0.1-1.2,0.3c-0.3,0.2-0.4,0.5-0.4,0.8c0,0.3,0.1,0.5,0.3,0.6
	s0.4,0.3,0.7,0.4c0.3,0.1,0.6,0.2,1,0.4c0.4,0.1,0.8,0.2,1.1,0.4c0.4,0.1,0.8,0.3,1.1,0.5c0.4,0.2,0.7,0.4,1,0.7
	c0.3,0.3,0.5,0.6,0.7,1c0.2,0.4,0.3,0.9,0.3,1.4c0,0.7-0.1,1.3-0.4,1.8c-0.2,0.6-0.6,1-1.1,1.5c-0.5,0.4-1.1,0.7-1.8,0.9
	s-1.5,0.3-2.4,0.3c-0.5,0-0.9,0-1.4-0.1c-0.5-0.1-0.9-0.2-1.3-0.4c-0.4-0.1-0.8-0.3-1.2-0.5c-0.4-0.2-0.7-0.4-0.9-0.7l0.9-1.5
	c0.1-0.2,0.2-0.3,0.4-0.4c0.2-0.1,0.4-0.1,0.6-0.1c0.2,0,0.4,0.1,0.6,0.2s0.4,0.2,0.6,0.3c0.2,0.1,0.5,0.2,0.8,0.3s0.7,0.2,1.1,0.2
	c0.3,0,0.6,0,0.8-0.1s0.4-0.2,0.5-0.3c0.1-0.1,0.2-0.2,0.3-0.4s0.1-0.3,0.1-0.4c0-0.3-0.1-0.5-0.3-0.7s-0.4-0.3-0.7-0.4
	c-0.3-0.1-0.6-0.2-1-0.4s-0.8-0.2-1.2-0.4s-0.8-0.3-1.2-0.5c-0.4-0.2-0.7-0.4-1-0.7s-0.5-0.7-0.7-1.1c-0.2-0.4-0.3-1-0.3-1.6
	c0-0.6,0.1-1.1,0.3-1.6c0.2-0.5,0.6-1,1-1.4c0.4-0.4,1-0.7,1.7-0.9c0.7-0.2,1.4-0.3,2.3-0.3c0.5,0,1,0,1.4,0.1
	c0.5,0.1,0.9,0.2,1.3,0.4c0.4,0.2,0.8,0.3,1.1,0.6c0.3,0.2,0.6,0.4,0.9,0.7L203.4,10z"/>
</svg>
